<mxfile host="app.diagrams.net" modified="2023-04-12T13:11:18.051Z" agent="Mozilla/5.0 (Windows NT 10.0; Win64; x64) AppleWebKit/537.36 (KHTML, like Gecko) Chrome/111.0.0.0 Safari/537.36" etag="Trgoxk7HJmvAyOeiS4Fa" version="21.1.4" type="github">
  <diagram name="Page-1" id="2YBvvXClWsGukQMizWep">
    <mxGraphModel dx="1114" dy="616" grid="1" gridSize="10" guides="1" tooltips="1" connect="1" arrows="1" fold="1" page="1" pageScale="1" pageWidth="850" pageHeight="1100" math="0" shadow="0">
      <root>
        <mxCell id="0" />
        <mxCell id="1" parent="0" />
        <mxCell id="4xNqTKwvq2-In16SjZqR-2" value="site" style="rounded=0;whiteSpace=wrap;html=1;" vertex="1" parent="1">
          <mxGeometry x="200" y="80" width="120" height="60" as="geometry" />
        </mxCell>
        <mxCell id="4xNqTKwvq2-In16SjZqR-3" value="Sistema" style="rounded=0;whiteSpace=wrap;html=1;" vertex="1" parent="1">
          <mxGeometry x="360" y="80" width="120" height="60" as="geometry" />
        </mxCell>
        <mxCell id="4xNqTKwvq2-In16SjZqR-4" value="Actor" style="shape=umlActor;verticalLabelPosition=bottom;verticalAlign=top;html=1;outlineConnect=0;" vertex="1" parent="1">
          <mxGeometry x="80" y="80" width="30" height="60" as="geometry" />
        </mxCell>
        <mxCell id="4xNqTKwvq2-In16SjZqR-6" value="" style="endArrow=none;dashed=1;html=1;dashPattern=1 3;strokeWidth=2;rounded=0;" edge="1" parent="1" source="4xNqTKwvq2-In16SjZqR-4">
          <mxGeometry width="50" height="50" relative="1" as="geometry">
            <mxPoint x="70" y="240" as="sourcePoint" />
            <mxPoint x="95" y="360" as="targetPoint" />
          </mxGeometry>
        </mxCell>
        <mxCell id="4xNqTKwvq2-In16SjZqR-7" value="" style="endArrow=none;dashed=1;html=1;dashPattern=1 3;strokeWidth=2;rounded=0;exitX=0.5;exitY=1;exitDx=0;exitDy=0;" edge="1" parent="1" source="4xNqTKwvq2-In16SjZqR-2">
          <mxGeometry width="50" height="50" relative="1" as="geometry">
            <mxPoint x="400" y="340" as="sourcePoint" />
            <mxPoint x="260" y="360" as="targetPoint" />
          </mxGeometry>
        </mxCell>
        <mxCell id="4xNqTKwvq2-In16SjZqR-8" value="" style="endArrow=none;dashed=1;html=1;dashPattern=1 3;strokeWidth=2;rounded=0;exitX=0.5;exitY=1;exitDx=0;exitDy=0;" edge="1" parent="1" source="4xNqTKwvq2-In16SjZqR-3">
          <mxGeometry width="50" height="50" relative="1" as="geometry">
            <mxPoint x="400" y="340" as="sourcePoint" />
            <mxPoint x="420" y="360" as="targetPoint" />
          </mxGeometry>
        </mxCell>
        <mxCell id="4xNqTKwvq2-In16SjZqR-11" value="" style="endArrow=classic;html=1;rounded=0;" edge="1" parent="1">
          <mxGeometry width="50" height="50" relative="1" as="geometry">
            <mxPoint x="100" y="180" as="sourcePoint" />
            <mxPoint x="260" y="180" as="targetPoint" />
          </mxGeometry>
        </mxCell>
        <mxCell id="4xNqTKwvq2-In16SjZqR-12" value="Consulta()" style="edgeLabel;html=1;align=center;verticalAlign=middle;resizable=0;points=[];" vertex="1" connectable="0" parent="4xNqTKwvq2-In16SjZqR-11">
          <mxGeometry x="-0.125" y="-1" relative="1" as="geometry">
            <mxPoint as="offset" />
          </mxGeometry>
        </mxCell>
        <mxCell id="4xNqTKwvq2-In16SjZqR-13" value="" style="endArrow=classic;html=1;rounded=0;" edge="1" parent="1">
          <mxGeometry width="50" height="50" relative="1" as="geometry">
            <mxPoint x="260" y="200" as="sourcePoint" />
            <mxPoint x="420" y="200" as="targetPoint" />
          </mxGeometry>
        </mxCell>
        <mxCell id="4xNqTKwvq2-In16SjZqR-14" value="VerificaDisponibilidade()" style="edgeLabel;html=1;align=center;verticalAlign=middle;resizable=0;points=[];" vertex="1" connectable="0" parent="4xNqTKwvq2-In16SjZqR-13">
          <mxGeometry x="0.1875" y="-1" relative="1" as="geometry">
            <mxPoint x="-15" as="offset" />
          </mxGeometry>
        </mxCell>
        <mxCell id="4xNqTKwvq2-In16SjZqR-15" value="" style="endArrow=classic;html=1;rounded=0;" edge="1" parent="1">
          <mxGeometry width="50" height="50" relative="1" as="geometry">
            <mxPoint x="420" y="240" as="sourcePoint" />
            <mxPoint x="100" y="240" as="targetPoint" />
          </mxGeometry>
        </mxCell>
        <mxCell id="4xNqTKwvq2-In16SjZqR-16" value="ListaDeVoosDisponíveis()" style="edgeLabel;html=1;align=center;verticalAlign=middle;resizable=0;points=[];" vertex="1" connectable="0" parent="4xNqTKwvq2-In16SjZqR-15">
          <mxGeometry x="-0.103" relative="1" as="geometry">
            <mxPoint x="-12" as="offset" />
          </mxGeometry>
        </mxCell>
        <mxCell id="4xNqTKwvq2-In16SjZqR-17" value="" style="endArrow=classic;html=1;rounded=0;" edge="1" parent="1">
          <mxGeometry width="50" height="50" relative="1" as="geometry">
            <mxPoint x="100" y="280" as="sourcePoint" />
            <mxPoint x="260" y="280" as="targetPoint" />
          </mxGeometry>
        </mxCell>
        <mxCell id="4xNqTKwvq2-In16SjZqR-18" value="selecionaVoos()" style="edgeLabel;html=1;align=center;verticalAlign=middle;resizable=0;points=[];" vertex="1" connectable="0" parent="4xNqTKwvq2-In16SjZqR-17">
          <mxGeometry x="-0.175" y="-2" relative="1" as="geometry">
            <mxPoint x="13" as="offset" />
          </mxGeometry>
        </mxCell>
        <mxCell id="4xNqTKwvq2-In16SjZqR-19" value="" style="endArrow=classic;html=1;rounded=0;" edge="1" parent="1">
          <mxGeometry width="50" height="50" relative="1" as="geometry">
            <mxPoint x="260" y="300" as="sourcePoint" />
            <mxPoint x="420" y="300" as="targetPoint" />
          </mxGeometry>
        </mxCell>
        <mxCell id="4xNqTKwvq2-In16SjZqR-20" value="Reserva()" style="edgeLabel;html=1;align=center;verticalAlign=middle;resizable=0;points=[];" vertex="1" connectable="0" parent="4xNqTKwvq2-In16SjZqR-19">
          <mxGeometry x="0.175" y="-2" relative="1" as="geometry">
            <mxPoint x="-14" as="offset" />
          </mxGeometry>
        </mxCell>
        <mxCell id="4xNqTKwvq2-In16SjZqR-21" value="" style="endArrow=classic;html=1;rounded=0;" edge="1" parent="1">
          <mxGeometry width="50" height="50" relative="1" as="geometry">
            <mxPoint x="260" y="340" as="sourcePoint" />
            <mxPoint x="90" y="340" as="targetPoint" />
          </mxGeometry>
        </mxCell>
        <mxCell id="4xNqTKwvq2-In16SjZqR-22" value="Confirmação()" style="edgeLabel;html=1;align=center;verticalAlign=middle;resizable=0;points=[];" vertex="1" connectable="0" parent="4xNqTKwvq2-In16SjZqR-21">
          <mxGeometry x="0.325" y="5" relative="1" as="geometry">
            <mxPoint x="16" y="-5" as="offset" />
          </mxGeometry>
        </mxCell>
        <mxCell id="4xNqTKwvq2-In16SjZqR-23" value="" style="endArrow=classic;html=1;rounded=0;" edge="1" parent="1">
          <mxGeometry width="50" height="50" relative="1" as="geometry">
            <mxPoint x="260" y="310" as="sourcePoint" />
            <mxPoint x="260" y="340" as="targetPoint" />
            <Array as="points">
              <mxPoint x="290" y="310" />
              <mxPoint x="290" y="340" />
            </Array>
          </mxGeometry>
        </mxCell>
        <mxCell id="4xNqTKwvq2-In16SjZqR-24" value="Actor" style="shape=umlActor;verticalLabelPosition=bottom;verticalAlign=top;html=1;outlineConnect=0;" vertex="1" parent="1">
          <mxGeometry x="80" y="440" width="30" height="60" as="geometry" />
        </mxCell>
        <mxCell id="4xNqTKwvq2-In16SjZqR-25" value="caixa eletronico" style="rounded=0;whiteSpace=wrap;html=1;" vertex="1" parent="1">
          <mxGeometry x="200" y="440" width="120" height="60" as="geometry" />
        </mxCell>
        <mxCell id="4xNqTKwvq2-In16SjZqR-26" value="sistema" style="rounded=0;whiteSpace=wrap;html=1;" vertex="1" parent="1">
          <mxGeometry x="360" y="440" width="120" height="60" as="geometry" />
        </mxCell>
        <mxCell id="4xNqTKwvq2-In16SjZqR-27" value="" style="endArrow=none;dashed=1;html=1;dashPattern=1 3;strokeWidth=2;rounded=0;" edge="1" parent="1">
          <mxGeometry width="50" height="50" relative="1" as="geometry">
            <mxPoint x="100" y="520" as="sourcePoint" />
            <mxPoint x="100" y="760" as="targetPoint" />
          </mxGeometry>
        </mxCell>
        <mxCell id="4xNqTKwvq2-In16SjZqR-28" value="" style="endArrow=none;dashed=1;html=1;dashPattern=1 3;strokeWidth=2;rounded=0;exitX=0.5;exitY=1;exitDx=0;exitDy=0;" edge="1" parent="1" source="4xNqTKwvq2-In16SjZqR-25">
          <mxGeometry width="50" height="50" relative="1" as="geometry">
            <mxPoint x="250" y="520" as="sourcePoint" />
            <mxPoint x="260" y="760" as="targetPoint" />
          </mxGeometry>
        </mxCell>
        <mxCell id="4xNqTKwvq2-In16SjZqR-29" value="" style="endArrow=none;dashed=1;html=1;dashPattern=1 3;strokeWidth=2;rounded=0;exitX=0.5;exitY=1;exitDx=0;exitDy=0;" edge="1" parent="1" source="4xNqTKwvq2-In16SjZqR-26">
          <mxGeometry width="50" height="50" relative="1" as="geometry">
            <mxPoint x="400" y="640" as="sourcePoint" />
            <mxPoint x="420" y="760" as="targetPoint" />
          </mxGeometry>
        </mxCell>
        <mxCell id="4xNqTKwvq2-In16SjZqR-30" value="" style="endArrow=classic;html=1;rounded=0;" edge="1" parent="1">
          <mxGeometry width="50" height="50" relative="1" as="geometry">
            <mxPoint x="100" y="540" as="sourcePoint" />
            <mxPoint x="260" y="540" as="targetPoint" />
          </mxGeometry>
        </mxCell>
        <mxCell id="4xNqTKwvq2-In16SjZqR-31" value="InserirCartão()" style="edgeLabel;html=1;align=center;verticalAlign=middle;resizable=0;points=[];" vertex="1" connectable="0" parent="4xNqTKwvq2-In16SjZqR-30">
          <mxGeometry x="0.1875" y="-2" relative="1" as="geometry">
            <mxPoint x="-15" as="offset" />
          </mxGeometry>
        </mxCell>
        <mxCell id="4xNqTKwvq2-In16SjZqR-32" value="" style="endArrow=classic;html=1;rounded=0;" edge="1" parent="1">
          <mxGeometry relative="1" as="geometry">
            <mxPoint x="100" y="560" as="sourcePoint" />
            <mxPoint x="260" y="560" as="targetPoint" />
          </mxGeometry>
        </mxCell>
        <mxCell id="4xNqTKwvq2-In16SjZqR-33" value="DiigitarAsenha()" style="edgeLabel;resizable=0;html=1;align=center;verticalAlign=middle;" connectable="0" vertex="1" parent="4xNqTKwvq2-In16SjZqR-32">
          <mxGeometry relative="1" as="geometry" />
        </mxCell>
        <mxCell id="4xNqTKwvq2-In16SjZqR-34" value="" style="endArrow=classic;html=1;rounded=0;" edge="1" parent="1">
          <mxGeometry relative="1" as="geometry">
            <mxPoint x="260" y="580" as="sourcePoint" />
            <mxPoint x="420" y="580" as="targetPoint" />
            <Array as="points" />
          </mxGeometry>
        </mxCell>
        <mxCell id="4xNqTKwvq2-In16SjZqR-35" value="VerificarDados()" style="edgeLabel;resizable=0;html=1;align=center;verticalAlign=middle;" connectable="0" vertex="1" parent="4xNqTKwvq2-In16SjZqR-34">
          <mxGeometry relative="1" as="geometry" />
        </mxCell>
        <mxCell id="4xNqTKwvq2-In16SjZqR-36" value="" style="endArrow=classic;html=1;rounded=0;" edge="1" parent="1">
          <mxGeometry relative="1" as="geometry">
            <mxPoint x="420" y="620" as="sourcePoint" />
            <mxPoint x="100" y="620" as="targetPoint" />
          </mxGeometry>
        </mxCell>
        <mxCell id="4xNqTKwvq2-In16SjZqR-37" value="SeEstiverCorretoMostarAsOpções()" style="edgeLabel;resizable=0;html=1;align=center;verticalAlign=middle;" connectable="0" vertex="1" parent="4xNqTKwvq2-In16SjZqR-36">
          <mxGeometry relative="1" as="geometry" />
        </mxCell>
        <mxCell id="4xNqTKwvq2-In16SjZqR-38" value="" style="endArrow=classic;html=1;rounded=0;" edge="1" parent="1">
          <mxGeometry relative="1" as="geometry">
            <mxPoint x="100" y="660" as="sourcePoint" />
            <mxPoint x="420" y="660" as="targetPoint" />
          </mxGeometry>
        </mxCell>
        <mxCell id="4xNqTKwvq2-In16SjZqR-39" value="SelecionAapção()" style="edgeLabel;resizable=0;html=1;align=center;verticalAlign=middle;" connectable="0" vertex="1" parent="4xNqTKwvq2-In16SjZqR-38">
          <mxGeometry relative="1" as="geometry" />
        </mxCell>
        <mxCell id="4xNqTKwvq2-In16SjZqR-40" value="" style="endArrow=classic;html=1;rounded=0;" edge="1" parent="1">
          <mxGeometry width="50" height="50" relative="1" as="geometry">
            <mxPoint x="420" y="700" as="sourcePoint" />
            <mxPoint x="260" y="700" as="targetPoint" />
          </mxGeometry>
        </mxCell>
        <mxCell id="4xNqTKwvq2-In16SjZqR-41" value="ExecutaOpração()" style="edgeLabel;html=1;align=center;verticalAlign=middle;resizable=0;points=[];" vertex="1" connectable="0" parent="4xNqTKwvq2-In16SjZqR-40">
          <mxGeometry x="-0.3875" y="4" relative="1" as="geometry">
            <mxPoint x="-31" as="offset" />
          </mxGeometry>
        </mxCell>
        <mxCell id="4xNqTKwvq2-In16SjZqR-42" value="" style="endArrow=classic;html=1;rounded=0;" edge="1" parent="1">
          <mxGeometry relative="1" as="geometry">
            <mxPoint x="260" y="740" as="sourcePoint" />
            <mxPoint x="100" y="740" as="targetPoint" />
          </mxGeometry>
        </mxCell>
        <mxCell id="4xNqTKwvq2-In16SjZqR-43" value="FinalizarPagamento()" style="edgeLabel;resizable=0;html=1;align=center;verticalAlign=middle;" connectable="0" vertex="1" parent="4xNqTKwvq2-In16SjZqR-42">
          <mxGeometry relative="1" as="geometry" />
        </mxCell>
        <mxCell id="4xNqTKwvq2-In16SjZqR-45" value="Actor" style="shape=umlActor;verticalLabelPosition=bottom;verticalAlign=top;html=1;outlineConnect=0;" vertex="1" parent="1">
          <mxGeometry x="80" y="840" width="30" height="60" as="geometry" />
        </mxCell>
        <mxCell id="4xNqTKwvq2-In16SjZqR-46" value="site" style="rounded=0;whiteSpace=wrap;html=1;" vertex="1" parent="1">
          <mxGeometry x="200" y="840" width="120" height="60" as="geometry" />
        </mxCell>
        <mxCell id="4xNqTKwvq2-In16SjZqR-47" value="sistema" style="rounded=0;whiteSpace=wrap;html=1;" vertex="1" parent="1">
          <mxGeometry x="360" y="840" width="120" height="60" as="geometry" />
        </mxCell>
        <mxCell id="4xNqTKwvq2-In16SjZqR-48" value="" style="endArrow=none;dashed=1;html=1;dashPattern=1 3;strokeWidth=2;rounded=0;" edge="1" parent="1">
          <mxGeometry width="50" height="50" relative="1" as="geometry">
            <mxPoint x="100" y="920" as="sourcePoint" />
            <mxPoint x="100" y="1150" as="targetPoint" />
          </mxGeometry>
        </mxCell>
        <mxCell id="4xNqTKwvq2-In16SjZqR-51" value="" style="endArrow=none;dashed=1;html=1;dashPattern=1 3;strokeWidth=2;rounded=0;exitX=0.5;exitY=1;exitDx=0;exitDy=0;" edge="1" parent="1" source="4xNqTKwvq2-In16SjZqR-46">
          <mxGeometry width="50" height="50" relative="1" as="geometry">
            <mxPoint x="400" y="1040" as="sourcePoint" />
            <mxPoint x="260" y="1160" as="targetPoint" />
          </mxGeometry>
        </mxCell>
        <mxCell id="4xNqTKwvq2-In16SjZqR-52" value="" style="endArrow=none;dashed=1;html=1;dashPattern=1 3;strokeWidth=2;rounded=0;exitX=0.5;exitY=1;exitDx=0;exitDy=0;" edge="1" parent="1" source="4xNqTKwvq2-In16SjZqR-47">
          <mxGeometry width="50" height="50" relative="1" as="geometry">
            <mxPoint x="400" y="1040" as="sourcePoint" />
            <mxPoint x="420" y="1160" as="targetPoint" />
          </mxGeometry>
        </mxCell>
        <mxCell id="4xNqTKwvq2-In16SjZqR-53" value="" style="endArrow=classic;html=1;rounded=0;" edge="1" parent="1">
          <mxGeometry relative="1" as="geometry">
            <mxPoint x="100" y="940" as="sourcePoint" />
            <mxPoint x="260" y="940" as="targetPoint" />
          </mxGeometry>
        </mxCell>
        <mxCell id="4xNqTKwvq2-In16SjZqR-54" value="PesquiisarProdudo()" style="edgeLabel;resizable=0;html=1;align=center;verticalAlign=middle;" connectable="0" vertex="1" parent="4xNqTKwvq2-In16SjZqR-53">
          <mxGeometry relative="1" as="geometry" />
        </mxCell>
        <mxCell id="4xNqTKwvq2-In16SjZqR-56" value="" style="endArrow=classic;html=1;rounded=0;" edge="1" parent="1">
          <mxGeometry relative="1" as="geometry">
            <mxPoint x="420" y="960" as="sourcePoint" />
            <mxPoint x="100" y="960" as="targetPoint" />
          </mxGeometry>
        </mxCell>
        <mxCell id="4xNqTKwvq2-In16SjZqR-57" value="ListaDeProduto()" style="edgeLabel;resizable=0;html=1;align=center;verticalAlign=middle;" connectable="0" vertex="1" parent="4xNqTKwvq2-In16SjZqR-56">
          <mxGeometry relative="1" as="geometry" />
        </mxCell>
        <mxCell id="4xNqTKwvq2-In16SjZqR-58" value="" style="endArrow=classic;html=1;rounded=0;" edge="1" parent="1">
          <mxGeometry relative="1" as="geometry">
            <mxPoint x="100" y="980" as="sourcePoint" />
            <mxPoint x="260" y="980" as="targetPoint" />
          </mxGeometry>
        </mxCell>
        <mxCell id="4xNqTKwvq2-In16SjZqR-59" value="SelecionarProduto()" style="edgeLabel;resizable=0;html=1;align=center;verticalAlign=middle;" connectable="0" vertex="1" parent="4xNqTKwvq2-In16SjZqR-58">
          <mxGeometry relative="1" as="geometry" />
        </mxCell>
        <mxCell id="4xNqTKwvq2-In16SjZqR-62" value="" style="endArrow=classic;html=1;rounded=0;" edge="1" parent="1">
          <mxGeometry relative="1" as="geometry">
            <mxPoint x="260" y="1020" as="sourcePoint" />
            <mxPoint x="420" y="1020" as="targetPoint" />
          </mxGeometry>
        </mxCell>
        <mxCell id="4xNqTKwvq2-In16SjZqR-63" value="VerificarProduto()" style="edgeLabel;resizable=0;html=1;align=center;verticalAlign=middle;" connectable="0" vertex="1" parent="4xNqTKwvq2-In16SjZqR-62">
          <mxGeometry relative="1" as="geometry" />
        </mxCell>
        <mxCell id="4xNqTKwvq2-In16SjZqR-65" value="" style="endArrow=classic;html=1;rounded=0;" edge="1" parent="1">
          <mxGeometry relative="1" as="geometry">
            <mxPoint x="420" y="1060" as="sourcePoint" />
            <mxPoint x="100" y="1060" as="targetPoint" />
          </mxGeometry>
        </mxCell>
        <mxCell id="4xNqTKwvq2-In16SjZqR-66" value="OpçãoDePagamento()" style="edgeLabel;resizable=0;html=1;align=center;verticalAlign=middle;" connectable="0" vertex="1" parent="4xNqTKwvq2-In16SjZqR-65">
          <mxGeometry relative="1" as="geometry" />
        </mxCell>
        <mxCell id="4xNqTKwvq2-In16SjZqR-67" value="" style="endArrow=classic;html=1;rounded=0;" edge="1" parent="1">
          <mxGeometry relative="1" as="geometry">
            <mxPoint x="100" y="1090" as="sourcePoint" />
            <mxPoint x="420" y="1090" as="targetPoint" />
          </mxGeometry>
        </mxCell>
        <mxCell id="4xNqTKwvq2-In16SjZqR-68" value="SelecionarPagamento()" style="edgeLabel;resizable=0;html=1;align=center;verticalAlign=middle;" connectable="0" vertex="1" parent="4xNqTKwvq2-In16SjZqR-67">
          <mxGeometry relative="1" as="geometry" />
        </mxCell>
        <mxCell id="4xNqTKwvq2-In16SjZqR-69" value="" style="endArrow=classic;html=1;rounded=0;" edge="1" parent="1">
          <mxGeometry width="50" height="50" relative="1" as="geometry">
            <mxPoint x="260" y="1130" as="sourcePoint" />
            <mxPoint x="100" y="1130" as="targetPoint" />
          </mxGeometry>
        </mxCell>
        <mxCell id="4xNqTKwvq2-In16SjZqR-70" value="FinalizarPagamento()" style="edgeLabel;html=1;align=center;verticalAlign=middle;resizable=0;points=[];" vertex="1" connectable="0" parent="4xNqTKwvq2-In16SjZqR-69">
          <mxGeometry x="-0.175" y="2" relative="1" as="geometry">
            <mxPoint as="offset" />
          </mxGeometry>
        </mxCell>
        <mxCell id="4xNqTKwvq2-In16SjZqR-71" value="Actor" style="shape=umlActor;verticalLabelPosition=bottom;verticalAlign=top;html=1;outlineConnect=0;" vertex="1" parent="1">
          <mxGeometry x="80" y="1240" width="30" height="60" as="geometry" />
        </mxCell>
        <mxCell id="4xNqTKwvq2-In16SjZqR-72" value="sistema" style="rounded=0;whiteSpace=wrap;html=1;" vertex="1" parent="1">
          <mxGeometry x="200" y="1240" width="120" height="60" as="geometry" />
        </mxCell>
        <mxCell id="4xNqTKwvq2-In16SjZqR-74" value="" style="endArrow=none;dashed=1;html=1;dashPattern=1 3;strokeWidth=2;rounded=0;" edge="1" parent="1">
          <mxGeometry width="50" height="50" relative="1" as="geometry">
            <mxPoint x="100" y="1320" as="sourcePoint" />
            <mxPoint x="100" y="1520" as="targetPoint" />
          </mxGeometry>
        </mxCell>
        <mxCell id="4xNqTKwvq2-In16SjZqR-75" value="" style="endArrow=none;dashed=1;html=1;dashPattern=1 3;strokeWidth=2;rounded=0;exitX=0.5;exitY=1;exitDx=0;exitDy=0;" edge="1" parent="1" source="4xNqTKwvq2-In16SjZqR-72">
          <mxGeometry width="50" height="50" relative="1" as="geometry">
            <mxPoint x="400" y="1540" as="sourcePoint" />
            <mxPoint x="260" y="1520" as="targetPoint" />
          </mxGeometry>
        </mxCell>
        <mxCell id="4xNqTKwvq2-In16SjZqR-76" value="" style="endArrow=classic;html=1;rounded=0;" edge="1" parent="1">
          <mxGeometry relative="1" as="geometry">
            <mxPoint x="100" y="1340" as="sourcePoint" />
            <mxPoint x="260" y="1340" as="targetPoint" />
          </mxGeometry>
        </mxCell>
        <mxCell id="4xNqTKwvq2-In16SjZqR-77" value="CriarTarefa()" style="edgeLabel;resizable=0;html=1;align=center;verticalAlign=middle;" connectable="0" vertex="1" parent="4xNqTKwvq2-In16SjZqR-76">
          <mxGeometry relative="1" as="geometry" />
        </mxCell>
        <mxCell id="4xNqTKwvq2-In16SjZqR-78" value="" style="endArrow=classic;html=1;rounded=0;" edge="1" parent="1">
          <mxGeometry relative="1" as="geometry">
            <mxPoint x="100" y="1380" as="sourcePoint" />
            <mxPoint x="260" y="1380" as="targetPoint" />
          </mxGeometry>
        </mxCell>
        <mxCell id="4xNqTKwvq2-In16SjZqR-79" value="AddResponsavel()" style="edgeLabel;resizable=0;html=1;align=center;verticalAlign=middle;" connectable="0" vertex="1" parent="4xNqTKwvq2-In16SjZqR-78">
          <mxGeometry relative="1" as="geometry" />
        </mxCell>
        <mxCell id="4xNqTKwvq2-In16SjZqR-80" value="" style="endArrow=classic;html=1;rounded=0;" edge="1" parent="1">
          <mxGeometry relative="1" as="geometry">
            <mxPoint x="260" y="1500" as="sourcePoint" />
            <mxPoint x="100" y="1500" as="targetPoint" />
          </mxGeometry>
        </mxCell>
        <mxCell id="4xNqTKwvq2-In16SjZqR-81" value="Atualização()" style="edgeLabel;resizable=0;html=1;align=center;verticalAlign=middle;" connectable="0" vertex="1" parent="4xNqTKwvq2-In16SjZqR-80">
          <mxGeometry relative="1" as="geometry" />
        </mxCell>
        <mxCell id="4xNqTKwvq2-In16SjZqR-84" value="" style="endArrow=classic;html=1;rounded=0;" edge="1" parent="1">
          <mxGeometry relative="1" as="geometry">
            <mxPoint x="260" y="1460" as="sourcePoint" />
            <mxPoint x="100" y="1460" as="targetPoint" />
          </mxGeometry>
        </mxCell>
        <mxCell id="4xNqTKwvq2-In16SjZqR-85" value="ExibirTarefa()" style="edgeLabel;resizable=0;html=1;align=center;verticalAlign=middle;" connectable="0" vertex="1" parent="4xNqTKwvq2-In16SjZqR-84">
          <mxGeometry relative="1" as="geometry" />
        </mxCell>
        <mxCell id="4xNqTKwvq2-In16SjZqR-86" value="" style="endArrow=classic;html=1;rounded=0;" edge="1" parent="1">
          <mxGeometry relative="1" as="geometry">
            <mxPoint x="260" y="1420" as="sourcePoint" />
            <mxPoint x="100" y="1420" as="targetPoint" />
          </mxGeometry>
        </mxCell>
        <mxCell id="4xNqTKwvq2-In16SjZqR-87" value="ExibirResponsavel()" style="edgeLabel;resizable=0;html=1;align=center;verticalAlign=middle;" connectable="0" vertex="1" parent="4xNqTKwvq2-In16SjZqR-86">
          <mxGeometry relative="1" as="geometry" />
        </mxCell>
        <mxCell id="4xNqTKwvq2-In16SjZqR-89" value="" style="endArrow=classic;html=1;rounded=0;" edge="1" parent="1">
          <mxGeometry width="50" height="50" relative="1" as="geometry">
            <mxPoint x="260" y="1340" as="sourcePoint" />
            <mxPoint x="260" y="1460" as="targetPoint" />
            <Array as="points">
              <mxPoint x="340" y="1340" />
              <mxPoint x="340" y="1460" />
            </Array>
          </mxGeometry>
        </mxCell>
        <mxCell id="4xNqTKwvq2-In16SjZqR-90" value="" style="endArrow=classic;html=1;rounded=0;" edge="1" parent="1">
          <mxGeometry width="50" height="50" relative="1" as="geometry">
            <mxPoint x="260" y="1380" as="sourcePoint" />
            <mxPoint x="260" y="1420" as="targetPoint" />
            <Array as="points">
              <mxPoint x="300" y="1380" />
              <mxPoint x="300" y="1420" />
            </Array>
          </mxGeometry>
        </mxCell>
        <mxCell id="4xNqTKwvq2-In16SjZqR-91" value="Actor" style="shape=umlActor;verticalLabelPosition=bottom;verticalAlign=top;html=1;outlineConnect=0;" vertex="1" parent="1">
          <mxGeometry x="80" y="1560" width="30" height="60" as="geometry" />
        </mxCell>
        <mxCell id="4xNqTKwvq2-In16SjZqR-92" value="Atendimento" style="rounded=0;whiteSpace=wrap;html=1;" vertex="1" parent="1">
          <mxGeometry x="200" y="1560" width="120" height="60" as="geometry" />
        </mxCell>
        <mxCell id="4xNqTKwvq2-In16SjZqR-93" value="sistema" style="rounded=0;whiteSpace=wrap;html=1;" vertex="1" parent="1">
          <mxGeometry x="360" y="1560" width="120" height="60" as="geometry" />
        </mxCell>
        <mxCell id="4xNqTKwvq2-In16SjZqR-94" value="" style="endArrow=none;dashed=1;html=1;dashPattern=1 3;strokeWidth=2;rounded=0;" edge="1" parent="1">
          <mxGeometry width="50" height="50" relative="1" as="geometry">
            <mxPoint x="100" y="1640" as="sourcePoint" />
            <mxPoint x="100" y="1880" as="targetPoint" />
          </mxGeometry>
        </mxCell>
        <mxCell id="4xNqTKwvq2-In16SjZqR-95" value="" style="endArrow=none;dashed=1;html=1;dashPattern=1 3;strokeWidth=2;rounded=0;exitX=0.5;exitY=1;exitDx=0;exitDy=0;" edge="1" parent="1" source="4xNqTKwvq2-In16SjZqR-92">
          <mxGeometry width="50" height="50" relative="1" as="geometry">
            <mxPoint x="400" y="1840" as="sourcePoint" />
            <mxPoint x="260" y="1880" as="targetPoint" />
          </mxGeometry>
        </mxCell>
        <mxCell id="4xNqTKwvq2-In16SjZqR-96" value="" style="endArrow=none;dashed=1;html=1;dashPattern=1 3;strokeWidth=2;rounded=0;exitX=0.5;exitY=1;exitDx=0;exitDy=0;" edge="1" parent="1" source="4xNqTKwvq2-In16SjZqR-93">
          <mxGeometry width="50" height="50" relative="1" as="geometry">
            <mxPoint x="400" y="1840" as="sourcePoint" />
            <mxPoint x="420" y="1880" as="targetPoint" />
          </mxGeometry>
        </mxCell>
        <mxCell id="4xNqTKwvq2-In16SjZqR-97" value="" style="endArrow=classic;html=1;rounded=0;" edge="1" parent="1">
          <mxGeometry relative="1" as="geometry">
            <mxPoint x="100" y="1660" as="sourcePoint" />
            <mxPoint x="260" y="1660" as="targetPoint" />
          </mxGeometry>
        </mxCell>
        <mxCell id="4xNqTKwvq2-In16SjZqR-98" value="lLigarProatendimento()" style="edgeLabel;resizable=0;html=1;align=center;verticalAlign=middle;" connectable="0" vertex="1" parent="4xNqTKwvq2-In16SjZqR-97">
          <mxGeometry relative="1" as="geometry" />
        </mxCell>
        <mxCell id="4xNqTKwvq2-In16SjZqR-99" value="" style="endArrow=classic;html=1;rounded=0;" edge="1" parent="1">
          <mxGeometry relative="1" as="geometry">
            <mxPoint x="260" y="1680" as="sourcePoint" />
            <mxPoint x="420" y="1680" as="targetPoint" />
          </mxGeometry>
        </mxCell>
        <mxCell id="4xNqTKwvq2-In16SjZqR-100" value="VerificarSeTemSolução()" style="edgeLabel;resizable=0;html=1;align=center;verticalAlign=middle;" connectable="0" vertex="1" parent="4xNqTKwvq2-In16SjZqR-99">
          <mxGeometry relative="1" as="geometry" />
        </mxCell>
        <mxCell id="4xNqTKwvq2-In16SjZqR-101" value="" style="endArrow=classic;html=1;rounded=0;" edge="1" parent="1">
          <mxGeometry relative="1" as="geometry">
            <mxPoint x="420" y="1720" as="sourcePoint" />
            <mxPoint x="100" y="1720" as="targetPoint" />
          </mxGeometry>
        </mxCell>
        <mxCell id="4xNqTKwvq2-In16SjZqR-102" value="SeTiverSoluçãoMostarEla()" style="edgeLabel;resizable=0;html=1;align=center;verticalAlign=middle;" connectable="0" vertex="1" parent="4xNqTKwvq2-In16SjZqR-101">
          <mxGeometry relative="1" as="geometry" />
        </mxCell>
        <mxCell id="4xNqTKwvq2-In16SjZqR-103" value="" style="endArrow=classic;html=1;rounded=0;" edge="1" parent="1">
          <mxGeometry relative="1" as="geometry">
            <mxPoint x="260" y="1760" as="sourcePoint" />
            <mxPoint x="420" y="1760" as="targetPoint" />
          </mxGeometry>
        </mxCell>
        <mxCell id="4xNqTKwvq2-In16SjZqR-104" value="SeNãotiversoluçãoRegistarEla()" style="edgeLabel;resizable=0;html=1;align=center;verticalAlign=middle;" connectable="0" vertex="1" parent="4xNqTKwvq2-In16SjZqR-103">
          <mxGeometry relative="1" as="geometry" />
        </mxCell>
        <mxCell id="4xNqTKwvq2-In16SjZqR-105" value="" style="endArrow=classic;html=1;rounded=0;" edge="1" parent="1">
          <mxGeometry relative="1" as="geometry">
            <mxPoint x="420" y="1800" as="sourcePoint" />
            <mxPoint x="100" y="1800" as="targetPoint" />
          </mxGeometry>
        </mxCell>
        <mxCell id="4xNqTKwvq2-In16SjZqR-106" value="EnviarConfirmação()" style="edgeLabel;resizable=0;html=1;align=center;verticalAlign=middle;" connectable="0" vertex="1" parent="4xNqTKwvq2-In16SjZqR-105">
          <mxGeometry relative="1" as="geometry" />
        </mxCell>
        <mxCell id="4xNqTKwvq2-In16SjZqR-107" value="" style="endArrow=classic;html=1;rounded=0;" edge="1" parent="1">
          <mxGeometry relative="1" as="geometry">
            <mxPoint x="260" y="1840" as="sourcePoint" />
            <mxPoint x="100" y="1840" as="targetPoint" />
          </mxGeometry>
        </mxCell>
        <mxCell id="4xNqTKwvq2-In16SjZqR-108" value="MostarStatus()" style="edgeLabel;resizable=0;html=1;align=center;verticalAlign=middle;" connectable="0" vertex="1" parent="4xNqTKwvq2-In16SjZqR-107">
          <mxGeometry relative="1" as="geometry" />
        </mxCell>
        <mxCell id="4xNqTKwvq2-In16SjZqR-109" value="1º" style="text;html=1;align=center;verticalAlign=middle;resizable=0;points=[];autosize=1;strokeColor=none;fillColor=none;" vertex="1" parent="1">
          <mxGeometry x="455" y="35" width="30" height="30" as="geometry" />
        </mxCell>
        <mxCell id="4xNqTKwvq2-In16SjZqR-110" value="2º" style="text;html=1;align=center;verticalAlign=middle;resizable=0;points=[];autosize=1;strokeColor=none;fillColor=none;" vertex="1" parent="1">
          <mxGeometry x="445" y="395" width="30" height="30" as="geometry" />
        </mxCell>
        <mxCell id="4xNqTKwvq2-In16SjZqR-111" value="3º" style="text;html=1;align=center;verticalAlign=middle;resizable=0;points=[];autosize=1;strokeColor=none;fillColor=none;" vertex="1" parent="1">
          <mxGeometry x="455" y="785" width="30" height="30" as="geometry" />
        </mxCell>
        <mxCell id="4xNqTKwvq2-In16SjZqR-112" value="4º" style="text;html=1;align=center;verticalAlign=middle;resizable=0;points=[];autosize=1;strokeColor=none;fillColor=none;" vertex="1" parent="1">
          <mxGeometry x="355" y="1195" width="30" height="30" as="geometry" />
        </mxCell>
        <mxCell id="4xNqTKwvq2-In16SjZqR-113" value="5º" style="text;html=1;align=center;verticalAlign=middle;resizable=0;points=[];autosize=1;strokeColor=none;fillColor=none;" vertex="1" parent="1">
          <mxGeometry x="425" y="1505" width="30" height="30" as="geometry" />
        </mxCell>
      </root>
    </mxGraphModel>
  </diagram>
</mxfile>
